<?xml version="1.0" encoding="UTF-8"?>
<svg id="Layer_2" data-name="Layer 2" xmlns="http://www.w3.org/2000/svg" viewBox="0 0 137 137">
  <defs>
    <style>
      .cls-1 {
        fill: #fff;
      }

      .cls-2 {
        fill: none;
        stroke: #fff;
        stroke-miterlimit: 10;
        stroke-width: 6px;
      }
    </style>
  </defs>
  <g id="Layer_1-2" data-name="Layer 1">
    <g>
      <rect class="cls-2" x="3" y="3" width="131" height="131" rx="21.73" ry="21.73"/>
      <g>
        <g>
          <circle class="cls-1" cx="52.28" cy="67.12" r="6.74"/>
          <circle class="cls-1" cx="84.55" cy="67.12" r="6.74"/>
        </g>
        <path class="cls-2" d="m50.97,40.75c-13.85,6.01-20.18,18.17-22.02,22.08-.56-.24-1.29-.52-2.18-.72-.85-.19-1.74-.3-2.66-.3-6.65,0-12.04,5.39-12.04,12.04s5.39,12.04,12.04,12.04c1.29,0,2.53-.21,3.7-.58,4.61,16.67,21.04,28.99,40.6,28.99s35.99-12.33,40.6-28.99c1.17.38,2.41.58,3.7.58,6.65,0,12.04-5.39,12.04-12.04s-5.39-12.04-12.04-12.04c-1.72,0-3.36.36-4.84,1.01-2.89-7.45-8.21-13.85-15.08-18.38-.91-.6-3.43-2.23-7.01-3.74"/>
        <path class="cls-2" d="m89.36,85.42c0,6.91-9.38,13.48-20.95,13.48s-20.95-6.57-20.95-13.48"/>
        <path class="cls-2" d="m66.31,48.34c.44-.11,10.41-2.76,13-12.04,1.61-5.77.36-14.11-5.78-17.34-4.3-2.25-11.07-2.05-14.45,2.41-2.31,3.05-3.49,8.7,0,12.04,2.72,2.6,7.37,2.92,11.08.48"/>
      </g>
    </g>
  </g>
</svg>