<?xml version="1.0" encoding="UTF-8"?>
<svg id="Layer_2" data-name="Layer 2" xmlns="http://www.w3.org/2000/svg" viewBox="0 0 104.51 78.16">
  <defs>
    <style>
      .cls-1 {
        fill: #dc2626;
      }

      .cls-1, .cls-2 {
        stroke: #000;
        stroke-miterlimit: 10;
        stroke-width: .5px;
      }

      .cls-2 {
        fill: #15803d;
      }
    </style>
  </defs>
  <g id="Layer_1-2" data-name="Layer 1">
    <g>
      <path class="cls-1" d="m77.12,32.14c-1,.14-2.17.64-9.28,9.28-2.84,3.46-4.54,5.67-5.3,6.63-5.9,7.38-13.38,11.26-17.23,13.25-8.47,4.39-16.4,8.5-25.18,6.63-2.87-.61-5.23-1.74-9.28-1.33-5.66.58-10.94,3.81-10.6,5.3.24,1.06,3.26.9,7.95,1.33,9.26.84,12.56,2.85,18.55,3.98,11.19,2.1,20.9-.91,26.5-2.65,12.74-3.96,20.64-10.65,25.18-14.58,6.69-5.8,10.64-9.32,10.6-14.58-.05-6.94-7.01-13.94-11.93-13.25Z"/>
      <path class="cls-2" d="m98.96.34c1.85-.5,4.2,1.19,5.02,3.15.39.94.5,2.1-.52,5.28-1.51,4.72-3.69,8.21-4.99,10.16-1.77,2.66-3.35,4.64-4.6,6.21-4.42,5.52-5.9,6.28-6.18,8.72-.43,3.7,1.84,7.77,1.35,8.17-.51.42-4.35-5.59-10.6-9.28-.53-.32-.05-1.23,0-1.33.07-.12,2.23,1.19,5.42.73,1.82-.26,3.06-1.42,5.79-4.76,3.86-4.73,6.48-7.98,9.33-13.73,3.28-6.61,2.77-8.28,2.22-9.1-1.1-1.63-3.78-1.92-3.7-3.02.05-.61.91-1.04,1.45-1.19Z"/>
    </g>
  </g>
</svg>