<?xml version="1.0" encoding="UTF-8"?>
<svg id="Layer_2" data-name="Layer 2" xmlns="http://www.w3.org/2000/svg" viewBox="0 0 142 138.5">
  <defs>
    <style>
      .cls-1 {
        fill: none;
        stroke-width: 6px;
      }

      .cls-1, .cls-2 {
        stroke: #fff;
        stroke-miterlimit: 10;
      }

      .cls-2 {
        fill: #fff;
      }
    </style>
  </defs>
  <g id="Layer_1-2" data-name="Layer 1">
    <g>
      <path class="cls-1" d="m107,92.41c.03,26.3,0,36.05,0,37.8,0,.35-.04,2.22-5.29,5.29H8.29c-2.92,0-5.29-2.37-5.29-5.29V18.79c0-2.92,2.37-5.29,5.29-5.29h93.43c2.92,0,5.29,2.37,5.29,5.29v35.21"/>
      <line class="cls-1" x1="27" y1="52.5" x2="83" y2="52.5"/>
      <line class="cls-1" x1="27" y1="80.5" x2="55" y2="80.5"/>
      <line class="cls-1" x1="27" y1="108.5" x2="55" y2="108.5"/>
      <path class="cls-1" d="m79.34,104.27h14.04c.93,0,1.83-.37,2.48-1.02l42.11-42.11c1.37-1.37,1.37-3.59,0-4.96,0,0,0,0,0,0l-14.04-14.04c-1.37-1.37-3.59-1.37-4.96,0,0,0,0,0,0,0l-42.11,42.11c-.66.66-1.03,1.55-1.02,2.48v14.04c0,1.94,1.57,3.51,3.51,3.51"/>
      <path class="cls-2" d="m45.59.5h19.9c8.33,0,15.09,6.76,15.09,15.09v4.33c0,3.36-2.73,6.09-6.09,6.09h-37.9c-3.36,0-6.09-2.73-6.09-6.09v-4.33c0-8.33,6.76-15.09,15.09-15.09Z"/>
    </g>
  </g>
</svg>