<?xml version="1.0" encoding="UTF-8"?>
<svg id="Layer_2" data-name="Layer 2" xmlns="http://www.w3.org/2000/svg" viewBox="0 0 141 141">
  <defs>
    <style>
      .cls-1 {
        stroke: #15803d;
      }

      .cls-1, .cls-2 {
        fill: none;
        stroke-miterlimit: 10;
        stroke-width: 6px;
      }

      .cls-2 {
        stroke: #000;
      }
    </style>
  </defs>
  <g id="Layer_1-2" data-name="Layer 1">
    <g>
      <line class="cls-1" x1="2.53" y1="70.5" x2="138.47" y2="70.5"/>
      <line class="cls-1" x1="71" y1="3" x2="71" y2="138"/>
      <path class="cls-1" d="m63.42,64.53l38.42,38.42-38.42-38.42Z"/>
      <path class="cls-1" d="m50.63,30.33c5.84,5.84,12.93,34.08,12.93,34.08,0,0-28.24-7.08-34.08-12.93-5.84-5.84-5.84-15.31,0-21.15s15.31-5.84,21.15,0Z"/>
      <path class="cls-1" d="m78.31,64.1l-38.42,38.42,38.42-38.42Z"/>
      <path class="cls-1" d="m112.8,51.18c-5.88,5.88-34.32,13.02-34.32,13.02,0,0,7.13-28.43,13.02-34.32,5.88-5.88,15.42-5.88,21.3,0,5.88,5.88,5.88,15.42,0,21.3Z"/>
      <rect class="cls-2" x="3" y="3" width="135" height="135" rx="15.69" ry="15.69"/>
    </g>
  </g>
</svg>