<?xml version="1.0" encoding="UTF-8"?>
<svg id="Layer_2" data-name="Layer 2" xmlns="http://www.w3.org/2000/svg" viewBox="0 0 141 141">
  <defs>
    <style>
      .cls-1 {
        fill: none;
        stroke: #000;
        stroke-miterlimit: 10;
        stroke-width: 6px;
      }

      .cls-2 {
        fill: #dc2626;
      }
    </style>
  </defs>
  <g id="Layer_1-2" data-name="Layer 1">
    <g>
      <g>
        <path class="cls-2" d="m80.61,32.49c-4.41-1.14-9.03-1.17-13.87-.07s-9.23,3.08-13.18,5.96l-7.09-12.58c4.49-3.79,10.13-6.3,16.93-7.54s13.74-.93,20.82.9"/>
        <path class="cls-2" d="m55.16,121.21c-2.86-.74-5.04-2.4-6.55-4.97s-1.89-5.28-1.15-8.14,2.41-5.1,4.98-6.59,5.27-1.86,8.13-1.12,5.11,2.4,6.6,4.94,1.86,5.26,1.11,8.17-2.39,5.05-4.93,6.56-5.27,1.9-8.18,1.14Z"/>
        <path class="cls-2" d="m84.22,19.16c9.14,2.37,15.69,6.29,19.66,11.75s4.96,11.96,3,19.51c-1.35,5.2-3.88,9.6-7.59,13.19s-8.6,6.37-14.67,8.35c-3.51,1.19-6.32,2.75-8.42,4.68-2.1,1.93-3.51,4.28-4.23,7.05l-1.5,5.77-13.78-3.58,1.75-6.75c1.21-4.64,3.23-8.48,6.07-11.52s6.5-5.28,10.98-6.72c4.41-1.36,7.92-3.18,10.54-5.48s4.35-5.06,5.19-8.3c.91-3.52.45-6.55-1.39-9.11s-4.91-4.39-9.23-5.51"/>
      </g>
      <circle class="cls-1" cx="70.5" cy="70.5" r="67.5"/>
    </g>
  </g>
</svg>