<?xml version="1.0" encoding="UTF-8"?>
<svg id="Layer_2" data-name="Layer 2" xmlns="http://www.w3.org/2000/svg" viewBox="0 0 186.12 154.57">
  <defs>
    <style>
      .cls-1 {
        fill: none;
        stroke: #fff;
        stroke-miterlimit: 10;
        stroke-width: 6px;
      }
    </style>
  </defs>
  <g id="Layer_1-2" data-name="Layer 1">
    <g>
      <g>
        <path class="cls-1" d="m77.78,22.91c-6.32.87-12.32,3.31-18,7.32s-10.31,8.93-13.89,14.76l-15.91-12.49c3.79-7.31,9.75-13.58,17.9-18.81,8.15-5.24,17.3-8.56,27.45-9.96"/>
        <path class="cls-1" d="m92.26,151.41c-4.1.57-7.81-.41-11.14-2.93-3.33-2.52-5.28-5.83-5.84-9.93s.4-7.9,2.92-11.19c2.52-3.29,5.84-5.23,9.94-5.79s7.9.38,11.19,2.87,5.22,5.82,5.8,9.99-.39,7.81-2.88,11.14-5.81,5.27-9.98,5.85Z"/>
        <path class="cls-1" d="m75.33,3.73c13.11-1.81,23.69-.24,31.73,4.71s12.82,12.84,14.32,23.66c1.03,7.46.11,14.51-2.78,21.14-2.88,6.63-7.73,12.85-14.53,18.66-3.91,3.42-6.71,6.94-8.4,10.56-1.69,3.62-2.26,7.42-1.71,11.39l1.14,8.27-19.76,2.73-1.34-9.68c-.92-6.65-.35-12.71,1.7-18.17s5.6-10.31,10.62-14.57c4.98-4.11,8.55-8.36,10.72-12.73,2.17-4.38,2.93-8.88,2.29-13.52-.7-5.04-2.92-8.72-6.67-11.05s-8.71-3.06-14.9-2.2"/>
      </g>
      <g>
        <path class="cls-1" d="m159.4,62.69c-3.88-1.56-8.09-2.12-12.62-1.69-4.54.43-8.77,1.72-12.71,3.88l-4.98-12.29c4.53-2.92,9.97-4.55,16.31-4.88,6.34-.33,12.63.76,18.86,3.27"/>
        <path class="cls-1" d="m125.8,140.53c-2.52-1.01-4.31-2.78-5.39-5.29-1.07-2.52-1.1-5.04-.09-7.55s2.8-4.37,5.31-5.42,5.02-1.07,7.54-.06,4.37,2.79,5.43,5.28c1.06,2.49,1.08,5.01.05,7.57-1.01,2.52-2.77,4.32-5.26,5.4s-5.02,1.11-7.58.08Z"/>
        <path class="cls-1" d="m164.25,50.97c8.05,3.24,13.56,7.57,16.53,13.01,2.97,5.44,3.12,11.48.45,18.12-1.84,4.58-4.66,8.29-8.46,11.13s-8.58,4.8-14.34,5.89c-3.34.67-6.08,1.76-8.22,3.28-2.14,1.51-3.7,3.49-4.68,5.92l-2.04,5.08-12.14-4.88,2.39-5.94c1.64-4.09,3.94-7.35,6.88-9.78s6.54-4.05,10.79-4.83c4.17-.72,7.59-1.97,10.25-3.76s4.56-4.1,5.71-6.95c1.24-3.1,1.18-5.92-.2-8.46s-3.96-4.58-7.76-6.1"/>
      </g>
      <g>
        <path class="cls-1" d="m27.17,72.25c-3.22,1.57-5.99,3.95-8.3,7.13s-3.9,6.68-4.75,10.5l-10.79-4.08c.7-4.66,2.75-9.13,6.16-13.41,3.41-4.28,7.7-7.69,12.88-10.22"/>
        <path class="cls-1" d="m58.28,140.11c-2.09,1.02-4.26,1.13-6.5.33s-3.88-2.28-4.93-4.42-1.22-4.39-.47-6.64,2.17-3.87,4.27-4.9,4.3-1.16,6.51-.37,3.85,2.28,4.92,4.46,1.21,4.35.48,6.6-2.15,3.9-4.28,4.94Z"/>
        <path class="cls-1" d="m22.37,62.16c6.69-3.27,12.63-4.24,17.84-2.93s9.2,4.81,11.97,10.47c1.91,3.91,2.69,7.93,2.36,12.06-.34,4.13-1.8,8.38-4.39,12.74-1.47,2.55-2.33,4.97-2.58,7.24s.14,4.46,1.15,6.53l2.12,4.33-10.08,4.93-2.48-5.07c-1.7-3.48-2.5-6.9-2.39-10.24s1.12-6.62,3.04-9.82c1.92-3.12,3.06-6.06,3.43-8.84.37-2.77-.04-5.37-1.23-7.8-1.29-2.64-3.15-4.27-5.58-4.9s-5.22-.16-8.37,1.38"/>
      </g>
    </g>
  </g>
</svg>