<?xml version="1.0" encoding="UTF-8"?>
<svg id="Layer_2" data-name="Layer 2" xmlns="http://www.w3.org/2000/svg" viewBox="0 0 155.01 146.64">
  <defs>
    <style>
      .cls-1 {
        fill: none;
        stroke: #000;
        stroke-miterlimit: 10;
        stroke-width: 6px;
      }

      .cls-2 {
        fill: #15803d;
      }
    </style>
  </defs>
  <g id="Layer_1-2" data-name="Layer 1">
    <g>
      <path d="m113.43,69.49c19.62,0,35.57,15.96,35.57,35.57s-15.96,35.57-35.57,35.57-35.57-15.96-35.57-35.57,15.96-35.57,35.57-35.57m0-6c-22.96,0-41.57,18.61-41.57,41.57s18.61,41.57,41.57,41.57,41.57-18.61,41.57-41.57-18.61-41.57-41.57-41.57h0Z"/>
      <circle class="cls-2" cx="113.43" cy="90.55" r="10.56"/>
      <path class="cls-2" d="m113.43,105.95c-9.74,0-18.25,5.21-22.95,12.98,4.7,7.77,13.21,12.98,22.95,12.98s18.25-5.21,22.95-12.98c-4.7-7.77-13.21-12.98-22.95-12.98Z"/>
      <path class="cls-1" d="m114.04,67.89c.37-1.38.75-2.77,1.15-4.18,1.22-4.36,1.32-38.27,1.32-38.27,0,0-54.58-22.52-56.75-22.44-2.18-.08-56.75,22.44-56.75,22.44,0,0,.1,33.92,1.32,38.27,7.99,28.64,10.56,50.15,55.43,71.27,8.27-3.89,15.1-7.79,20.79-11.75"/>
    </g>
  </g>
</svg>