<?xml version="1.0" encoding="UTF-8"?>
<svg id="Layer_2" data-name="Layer 2" xmlns="http://www.w3.org/2000/svg" viewBox="0 0 186.12 154.57">
  <defs>
    <style>
      .cls-1 {
        stroke: #15803d;
      }

      .cls-1, .cls-2 {
        fill: none;
        stroke-miterlimit: 10;
        stroke-width: 6px;
      }

      .cls-2 {
        stroke: #000;
      }
    </style>
  </defs>
  <g id="Layer_1-2" data-name="Layer 1">
    <g>
      <g>
        <path class="cls-1" d="m92.26,151.41c-4.1.57-7.81-.41-11.14-2.93-3.33-2.52-5.28-5.83-5.84-9.93s.4-7.9,2.92-11.19,5.84-5.23,9.94-5.79,7.9.38,11.19,2.87,5.22,5.82,5.8,9.99-.39,7.81-2.88,11.14-5.81,5.27-9.98,5.85Z"/>
        <path class="cls-1" d="m75.33,3.73c13.11-1.81,23.69-.24,31.73,4.71s12.82,12.84,14.32,23.66c1.03,7.46.11,14.51-2.78,21.14-2.88,6.63-7.73,12.85-14.53,18.66-3.91,3.42-6.71,6.94-8.4,10.56-1.69,3.62-2.26,7.42-1.71,11.39l1.14,8.27-19.76,2.73-1.34-9.68c-.92-6.65-.35-12.71,1.7-18.17s5.6-10.31,10.62-14.57c4.98-4.11,8.55-8.36,10.72-12.73,2.17-4.38,2.93-8.88,2.29-13.52-.7-5.04-2.92-8.72-6.67-11.05s-8.71-3.06-14.9-2.2-12.32,3.31-18,7.32-10.31,8.93-13.89,14.76l-15.91-12.49c3.79-7.31,9.75-13.58,17.9-18.81,8.15-5.24,17.3-8.56,27.45-9.96Z"/>
      </g>
      <g>
        <path class="cls-2" d="m125.8,140.53c-2.52-1.01-4.31-2.78-5.39-5.29-1.07-2.52-1.1-5.04-.09-7.55s2.8-4.37,5.31-5.42,5.02-1.07,7.54-.06,4.37,2.79,5.43,5.28,1.08,5.01.05,7.57-2.77,4.32-5.26,5.4-5.02,1.11-7.58.08Z"/>
        <path class="cls-2" d="m164.25,50.97c8.05,3.24,13.56,7.57,16.53,13.01s3.12,11.48.45,18.12c-1.84,4.58-4.66,8.29-8.46,11.13s-8.58,4.8-14.34,5.89c-3.34.67-6.08,1.76-8.22,3.28-2.14,1.51-3.7,3.49-4.68,5.92l-2.04,5.08-12.14-4.88,2.39-5.94c1.64-4.09,3.94-7.35,6.88-9.78s6.54-4.05,10.79-4.83c4.17-.72,7.59-1.97,10.25-3.76s4.56-4.1,5.71-6.95c1.24-3.1,1.18-5.92-.2-8.46-1.38-2.54-3.96-4.58-7.76-6.1s-8.09-2.12-12.62-1.69-8.77,1.72-12.71,3.88l-4.98-12.29c4.53-2.92,9.97-4.55,16.31-4.88s12.63.76,18.86,3.27Z"/>
      </g>
      <g>
        <path class="cls-2" d="m58.28,140.11c-2.09,1.02-4.26,1.13-6.5.33s-3.88-2.28-4.93-4.42-1.22-4.39-.47-6.64c.75-2.24,2.17-3.87,4.27-4.9,2.13-1.04,4.3-1.16,6.51-.37s3.85,2.28,4.92,4.46,1.21,4.35.48,6.6-2.15,3.9-4.28,4.94Z"/>
        <path class="cls-2" d="m27.17,72.25c3.15-1.54,5.95-2,8.37-1.38s4.29,2.25,5.58,4.9c1.19,2.43,1.6,5.03,1.23,7.8-.37,2.77-1.51,5.72-3.43,8.84-1.92,3.2-2.93,6.48-3.04,9.82s.69,6.76,2.39,10.24l2.48,5.07,10.08-4.93-2.12-4.33c-1.01-2.08-1.4-4.25-1.15-6.53s1.11-4.69,2.58-7.24c2.59-4.36,4.05-8.61,4.39-12.74.34-4.13-.45-8.15-2.36-12.06-2.77-5.67-6.76-9.16-11.97-10.47-5.21-1.31-11.16-.34-17.84,2.93-5.18,2.53-9.47,5.94-12.88,10.22-3.41,4.28-5.46,8.75-6.16,13.41l10.79,4.08c.85-3.82,2.44-7.32,4.75-10.5,2.31-3.18,5.08-5.56,8.3-7.13Z"/>
      </g>
    </g>
  </g>
</svg>